pinch_force_states
version=1
nRows=10
nColumns=45
inDegrees=yes

# SIMM Motion File Header:
name pinch_force_states
datacolumns 45
datarows 10
otherdata 1
range 0.09999746 0.10089746
endheader
time	/jointset/radiocarpal/deviation/value	/jointset/radiocarpal/deviation/speed	/jointset/radiocarpal/flexion/value	/jointset/radiocarpal/flexion/speed	/jointset/wrist_hand/wrist_hand_r1/value	/jointset/wrist_hand/wrist_hand_r1/speed	/jointset/wrist_hand/wrist_hand_r3/value	/jointset/wrist_hand/wrist_hand_r3/speed	/jointset/CMC1a/cmc_flexion/value	/jointset/CMC1a/cmc_flexion/speed	/jointset/CMC1b/cmc_abduction/value	/jointset/CMC1b/cmc_abduction/speed	/jointset/MCP/mp_flexion/value	/jointset/MCP/mp_flexion/speed	/jointset/IP/ip_flexion/value	/jointset/IP/ip_flexion/speed	/forceset/ECRL/activation	/forceset/ECRL/fiber_length	/forceset/ECRB/activation	/forceset/ECRB/fiber_length	/forceset/ECU/activation	/forceset/ECU/fiber_length	/forceset/FCR/activation	/forceset/FCR/fiber_length	/forceset/FCU/activation	/forceset/FCU/fiber_length	/forceset/EPL/activation	/forceset/EPL/fiber_length	/forceset/EPB/activation	/forceset/EPB/fiber_length	/forceset/FPL/activation	/forceset/FPL/fiber_length	/forceset/APL/activation	/forceset/APL/fiber_length	/forceset/APB/activation	/forceset/APB/fiber_length	/forceset/FPB/activation	/forceset/FPB/fiber_length	/forceset/OPP/activation	/forceset/OPP/fiber_length	/forceset/ADPt/activation	/forceset/ADPt/fiber_length	/forceset/ADPo/activation	/forceset/ADPo/fiber_length
      0.09999746	      0.01811136	      0.07408602	     -0.05362310	     -0.19587068	      1.39292815	      5.63496035	     -1.53618857	     -5.61128178	    -13.29132430	      7.23970899	    -13.14222377	     25.47330359	     16.51028552	    -17.58883223	     46.18127253	     25.78541971	      0.01238483	      0.06421376	      0.36622056	      0.05507924	      0.99862122	      0.05921857	      0.00184805	      0.05126302	      0.60768366	      0.03035683	      0.47396701	      0.05248792	      0.07694563	      0.06431537	      1.00000000	      0.05416350	      0.01293340	      0.07129567	      0.08647987	      0.05292451	      0.12944159	      0.05061947	      0.51645636	      0.04475487	      0.99666356	      0.03892845	      0.87323913	      0.03211766
      0.10009746	      0.01811875	      0.07357074	     -0.05364280	     -0.19820043	      1.39348967	      5.59571753	     -1.53675305	     -5.67802415	    -13.29059662	      7.31378012	    -13.13966517	     25.69794012	     16.50852575	    -17.60661476	     46.18385564	     25.87672441	      0.01238483	      0.06421396	      0.36622056	      0.05507929	      0.99862122	      0.05921815	      0.00183990	      0.05126312	      0.60768366	      0.03035667	      0.47396701	      0.05248818	      0.07694563	      0.06431531	      1.00000000	      0.05416370	      0.01293340	      0.07129582	      0.08647987	      0.05292432	      0.12944159	      0.05061963	      0.51645636	      0.04475479	      0.99666356	      0.03892875	      0.87323913	      0.03211798
      0.10019746	      0.01812608	      0.07306742	     -0.05366274	     -0.20048959	      1.39404732	      5.55738462	     -1.53732414	     -5.74360365	    -13.28986158	      7.38678117	    -13.13708430	     25.91887929	     16.50676417	    -17.62506246	     46.18644785	     25.96741519	      0.01238483	      0.06421416	      0.36622056	      0.05507934	      0.99862122	      0.05921772	      0.00183175	      0.05126323	      0.60768366	      0.03035651	      0.47396701	      0.05248844	      0.07694563	      0.06431526	      1.00000000	      0.05416390	      0.01293340	      0.07129597	      0.08647987	      0.05292412	      0.12944159	      0.05061980	      0.51645636	      0.04475472	      0.99666356	      0.03892905	      0.87323913	      0.03211830
      0.10029746	      0.01813336	      0.07257605	     -0.05368290	     -0.20273796	      1.39460118	      5.51996298	     -1.53790173	     -5.80801482	    -13.28911930	      7.45870300	    -13.13448152	     26.13610049	     16.50500072	    -17.64416252	     46.18904910	     26.05747277	      0.01238483	      0.06421435	      0.36622056	      0.05507939	      0.99862122	      0.05921730	      0.00182360	      0.05126333	      0.60768366	      0.03035635	      0.47396701	      0.05248871	      0.07694563	      0.06431520	      1.00000000	      0.05416411	      0.01293340	      0.07129612	      0.08647987	      0.05292392	      0.12944159	      0.05061996	      0.51645636	      0.04475464	      0.99666356	      0.03892934	      0.87323913	      0.03211862
      0.10039746	      0.01814059	      0.07209668	     -0.05370328	     -0.20494537	      1.39515134	      5.48345377	     -1.53848570	     -5.87125241	    -13.28836988	      7.52953676	    -13.13185721	     26.34958390	     16.50323532	    -17.66390209	     46.19165932	     26.14687817	      0.01238483	      0.06421453	      0.36622056	      0.05507944	      0.99862122	      0.05921688	      0.00181544	      0.05126345	      0.60768366	      0.03035619	      0.47396701	      0.05248897	      0.07694563	      0.06431514	      1.00000000	      0.05416431	      0.01293340	      0.07129627	      0.08647987	      0.05292371	      0.12944159	      0.05062013	      0.51645636	      0.04475457	      0.99666356	      0.03892964	      0.87323913	      0.03211894
      0.10049746	      0.01814778	      0.07162930	     -0.05372389	     -0.20711164	      1.39569790	      5.44785790	     -1.53907594	     -5.93331144	    -13.28761343	      7.59927393	    -13.12921173	     26.55931048	     16.50146792	    -17.68426837	     46.19427845	     26.23561268	      0.01238483	      0.06421471	      0.36622056	      0.05507949	      0.99862122	      0.05921645	      0.00180729	      0.05126356	      0.60768366	      0.03035603	      0.47396701	      0.05248923	      0.07694563	      0.06431509	      1.00000000	      0.05416451	      0.01293340	      0.07129642	      0.08647987	      0.05292351	      0.12944159	      0.05062029	      0.51645636	      0.04475449	      0.99666356	      0.03892994	      0.87323913	      0.03211927
      0.10059746	      0.01815492	      0.07117392	     -0.05374470	     -0.20923660	      1.39624094	      5.41317609	     -1.53967233	     -5.99418717	    -13.28685006	      7.66790627	    -13.12654547	     26.76526192	     16.49969844	    -17.70524852	     46.19690642	     26.32365783	      0.01238483	      0.06421489	      0.36622056	      0.05507954	      0.99862122	      0.05921603	      0.00179914	      0.05126368	      0.60768366	      0.03035588	      0.47396701	      0.05248949	      0.07694563	      0.06431503	      1.00000000	      0.05416472	      0.01293340	      0.07129656	      0.08647987	      0.05292330	      0.12944159	      0.05062046	      0.51645636	      0.04475442	      0.99666356	      0.03893025	      0.87323913	      0.03211959
      0.10069746	      0.01816202	      0.07073056	     -0.05376573	     -0.21132011	      1.39678057	      5.37940882	     -1.54027474	     -6.05387510	    -13.28607989	      7.73542584	    -13.12385880	     26.96742070	     16.49792685	    -17.72682974	     46.19954316	     26.41099546	      0.01238483	      0.06421506	      0.36622056	      0.05507958	      0.99862122	      0.05921561	      0.00179099	      0.05126381	      0.60768366	      0.03035572	      0.47396701	      0.05248975	      0.07694563	      0.06431498	      1.00000000	      0.05416492	      0.01293340	      0.07129671	      0.08647987	      0.05292309	      0.12944159	      0.05062062	      0.51645636	      0.04475434	      0.99666356	      0.03893055	      0.87323913	      0.03211991
      0.10079746	      0.01816907	      0.07029921	     -0.05378697	     -0.21336200	      1.39731686	      5.34655637	     -1.54088306	     -6.11237097	    -13.28530301	      7.80182502	    -13.12115211	     27.16577009	     16.49615306	    -17.74899922	     46.20218860	     26.49760768	      0.01238483	      0.06421523	      0.36622056	      0.05507963	      0.99862122	      0.05921519	      0.00178284	      0.05126393	      0.60768366	      0.03035557	      0.47396701	      0.05249001	      0.07694563	      0.06431492	      1.00000000	      0.05416512	      0.01293340	      0.07129686	      0.08647987	      0.05292287	      0.12944159	      0.05062079	      0.51645636	      0.04475426	      0.99666356	      0.03893085	      0.87323913	      0.03212023
      0.10089746	      0.01817608	      0.06987989	     -0.05380840	     -0.21536214	      1.39784991	      5.31461879	     -1.54149717	     -6.16967076	    -13.28451956	      7.86709647	    -13.11842578	     27.36029408	     16.49437703	    -17.77174416	     46.20484266	     26.58347688	      0.01238483	      0.06421539	      0.36622056	      0.05507968	      0.99862122	      0.05921476	      0.00177468	      0.05126407	      0.60768366	      0.03035542	      0.47396701	      0.05249028	      0.07694563	      0.06431486	      1.00000000	      0.05416533	      0.01293340	      0.07129700	      0.08647987	      0.05292266	      0.12944159	      0.05062095	      0.51645636	      0.04475418	      0.99666356	      0.03893115	      0.87323913	      0.03212055
